<?xml version="1.0" encoding="UTF-8"?>
<svg width="40px" height="36px" viewBox="0 0 40 36" version="1.1" xmlns="http://www.w3.org/2000/svg" xmlns:xlink="http://www.w3.org/1999/xlink">
    <!-- Generator: Sketch 44.1 (41455) - http://www.bohemiancoding.com/sketch -->
    <title>hex-mixed-plane</title>
    <desc>Created with Sketch.</desc>
    <defs></defs>
    <g id="Symbols" stroke="none" stroke-width="1" fill="none" fill-rule="evenodd">
        <g id="hex-mixed-plane">
            <g>
                <polygon id="Shape" fill="#428742" fill-rule="nonzero" points="30 0 10 0 0 18 10 36 30 36 40 18"></polygon>
                <rect id="Rectangle-2" fill-opacity="0.5" fill="#FF2E47" x="29" y="26" width="1" height="1"></rect>
                <rect id="Rectangle-2" fill="#58B258" x="22" y="12" width="1" height="1"></rect>
                <rect id="Rectangle-2" fill="#58B258" x="22" y="12" width="1" height="1"></rect>
                <rect id="Rectangle-2" fill="#4D9E4D" x="23" y="11" width="1" height="1"></rect>
                <rect id="Rectangle-2" fill="#4D9E4D" x="6" y="23" width="1" height="1"></rect>
                <rect id="Rectangle-2" fill="#4D9E4D" x="10" y="27" width="1" height="2"></rect>
                <rect id="Rectangle-2" fill="#58B258" x="11" y="26" width="1" height="1"></rect>
                <rect id="Rectangle-2" fill="#58B258" x="26" y="23" width="1" height="1"></rect>
                <rect id="Rectangle-2" fill="#4D9E4D" x="20" y="33" width="1" height="1"></rect>
                <rect id="Rectangle-2" fill="#4D9E4D" x="34" y="13" width="1" height="1"></rect>
                <rect id="Rectangle-2" fill="#58B258" x="35" y="18" width="1" height="1"></rect>
                <rect id="Rectangle-2" fill="#4D9E4D" x="36" y="16" width="1" height="2"></rect>
                <rect id="Rectangle-2" fill="#4D9E4D" x="10" y="10" width="2" height="1"></rect>
                <rect id="Rectangle-2" fill="#4D9E4D" x="9" y="9" width="1" height="1"></rect>
                <rect id="Rectangle-2" fill="#58B258" x="11" y="11" width="1" height="1"></rect>
                <rect id="Rectangle-2" fill="#58B258" x="12" y="9" width="1" height="1"></rect>
                <rect id="Rectangle-2" fill="#2C5C2C" x="23" y="17" width="1" height="2"></rect>
                <rect id="Rectangle-2" fill="#387438" x="24" y="17" width="1" height="1"></rect>
                <rect id="Rectangle-2" fill="#387438" x="25" y="16" width="1" height="1"></rect>
                <rect id="Rectangle-2" fill="#387438" x="30" y="16" width="1" height="1"></rect>
                <rect id="Rectangle-2" fill="#387438" x="15" y="26" width="1" height="1"></rect>
                <rect id="Rectangle-2" fill="#2C5C2C" x="25" y="6" width="1" height="1"></rect>
                <rect id="Rectangle-2" fill="#387438" x="16" y="12" width="1" height="1"></rect>
                <rect id="Rectangle-2" fill="#387438" x="12" y="4" width="1" height="1"></rect>
                <rect id="Rectangle-2" fill="#2C5C2C" x="25" y="31" width="1" height="1"></rect>
                <rect id="Rectangle-2" fill="#2C5C2C" x="17" y="8" width="1" height="2"></rect>
                <rect id="Rectangle-2" fill="#387438" x="15" y="7" width="2" height="1"></rect>
                <rect id="Rectangle-2" fill="#387438" x="18" y="8" width="1" height="1"></rect>
                <rect id="Rectangle-2" fill="#387438" x="19" y="7" width="1" height="1"></rect>
                <rect id="Rectangle-2" fill-opacity="0.61888587" fill="#F6A623" x="17" y="7" width="1" height="1"></rect>
                <rect id="Rectangle-2" fill="#4D9E4D" x="15" y="22" width="1" height="2"></rect>
                <rect id="Rectangle-2" fill="#4D9E4D" x="28" y="28" width="1" height="1"></rect>
                <rect id="Rectangle-2" fill="#58B258" x="27" y="27" width="1" height="1"></rect>
                <rect id="Rectangle-2" fill="#58B258" x="29" y="27" width="1" height="1"></rect>
                <rect id="Rectangle-2" fill="#4D9E4D" x="30" y="26" width="1" height="1"></rect>
                <rect id="Rectangle-2" fill="#4D9E4D" x="13" y="21" width="1" height="1"></rect>
                <rect id="Rectangle-2" fill="#58B258" x="14" y="21" width="1" height="1"></rect>
                <rect id="Rectangle-2" fill="#58B258" x="16" y="22" width="1" height="1"></rect>
                <rect id="Rectangle-2" fill="#58B258" x="17" y="21" width="1" height="1"></rect>
                <rect id="Rectangle-2" fill="#2C5C2C" x="6" y="17" width="1" height="2"></rect>
                <rect id="Rectangle-2" fill="#387438" x="7" y="17" width="1" height="1"></rect>
                <rect id="Rectangle-2" fill="#387438" x="8" y="16" width="1" height="1"></rect>
                <rect id="Rectangle-2" fill-opacity="0.5" fill="#FF2E47" x="8" y="17" width="1" height="1"></rect>
                <rect id="Rectangle-2" fill-opacity="0.5" fill="#FF2E47" x="29" y="9" width="1" height="1"></rect>
                <rect id="Rectangle-2" fill="#387438" x="9" y="15" width="1" height="1"></rect>
                <rect id="Rectangle-2" fill="#387438" x="5" y="16" width="1" height="1"></rect>
                <rect id="Rectangle-2" fill="#4D9E4D" x="29" y="10" width="1" height="2"></rect>
                <rect id="Rectangle-2" fill="#5BB75B" x="28" y="9" width="1" height="1"></rect>
                <rect id="Rectangle-2" fill="#58B258" x="30" y="10" width="1" height="1"></rect>
                <rect id="Rectangle-2" fill="#4D9E4D" x="31" y="9" width="1" height="1"></rect>
                <rect id="Rectangle-2" fill="#387438" x="30" y="22" width="1" height="2"></rect>
                <rect id="Rectangle-2" fill="#2C5C2C" x="29" y="21" width="1" height="1"></rect>
                <rect id="Rectangle-2" fill="#2C5C2C" x="31" y="22" width="1" height="1"></rect>
                <rect id="Rectangle-2" fill="#387438" x="32" y="21" width="1" height="1"></rect>
                <rect id="Rectangle-2" fill="#2C5C2C" x="22" y="27" width="1" height="2"></rect>
                <rect id="Rectangle-2" fill="#387438" x="20" y="26" width="2" height="1"></rect>
                <rect id="Rectangle-2" fill="#387438" x="23" y="27" width="1" height="1"></rect>
                <rect id="Rectangle-2" fill="#387438" x="15" y="31" width="1" height="2"></rect>
                <rect id="Rectangle-2" fill="#2C5C2C" x="13" y="30" width="2" height="1"></rect>
                <rect id="Rectangle-2" fill="#387438" x="16" y="31" width="1" height="1"></rect>
                <rect id="Rectangle-2" fill="#387438" x="17" y="30" width="1" height="1"></rect>
                <rect id="Rectangle-2" fill="#58B258" x="17" y="16" width="1" height="2"></rect>
                <rect id="Rectangle-2" fill="#4D9E4D" x="16" y="15" width="1" height="1"></rect>
                <rect id="Rectangle-2" fill="#4D9E4D" x="22" y="3" width="1" height="1"></rect>
                <rect id="Rectangle-2" fill="#58B258" x="21" y="2" width="1" height="1"></rect>
                <rect id="Rectangle-2" fill="#58B258" x="23" y="2" width="1" height="1"></rect>
                <rect id="Rectangle-2" fill="#4D9E4D" x="24" y="1" width="1" height="1"></rect>
            </g>
        </g>
    </g>
</svg>