<?xml version="1.0" encoding="UTF-8"?>
<svg width="5px" height="6px" viewBox="0 0 5 6" version="1.1" xmlns="http://www.w3.org/2000/svg" xmlns:xlink="http://www.w3.org/1999/xlink">
    <!-- Generator: Sketch 44.1 (41455) - http://www.bohemiancoding.com/sketch -->
    <title>magic tree</title>
    <desc>Created with Sketch.</desc>
    <defs></defs>
    <g id="Symbols" stroke="none" stroke-width="1" fill="none" fill-rule="evenodd">
        <g id="magic-tree">
            <rect id="Rectangle-2" fill="#725A45" x="2" y="4" width="1" height="1"></rect>
            <rect id="Rectangle-2" fill="#7D624B" x="2" y="5" width="1" height="1"></rect>
            <rect id="Rectangle-4" fill="#C6AA01" x="1" y="3" width="1" height="1"></rect>
            <rect id="Rectangle-4" fill="#C6AA01" x="0" y="3" width="1" height="1"></rect>
            <rect id="Rectangle-4" fill="#968101" x="1" y="4" width="1" height="1"></rect>
            <rect id="Rectangle-4" fill="#968101" x="3" y="4" width="1" height="1"></rect>
            <rect id="Rectangle-4" fill="#968101" x="2" y="1" width="1" height="1"></rect>
            <rect id="Rectangle-4" fill="#968101" x="2" y="3" width="1" height="1"></rect>
            <rect id="Rectangle-4" fill="#968101" x="2" y="3" width="1" height="1"></rect>
            <rect id="Rectangle-4" fill="#C6AA01" x="1" y="0" width="1" height="3"></rect>
            <rect id="Rectangle-4" fill="#C6AA01" x="3" y="0" width="1" height="3"></rect>
            <rect id="Rectangle-4" fill="#C6AA01" x="3" y="3" width="1" height="1"></rect>
            <rect id="Rectangle-4" fill="#C6AA01" x="4" y="3" width="1" height="1"></rect>
            <rect id="Rectangle-4" fill="#968101" x="4" y="2" width="1" height="1"></rect>
            <rect id="Rectangle-4" fill="#968101" x="0" y="2" width="1" height="1"></rect>
            <rect id="Rectangle-5" fill-opacity="0.5" fill="#05A3DF" x="2" y="2" width="1" height="1"></rect>
        </g>
    </g>
</svg>