<?xml version="1.0" encoding="UTF-8"?>
<svg width="40px" height="36px" viewBox="0 0 40 36" version="1.1" xmlns="http://www.w3.org/2000/svg" xmlns:xlink="http://www.w3.org/1999/xlink">
    <!-- Generator: Sketch 44.1 (41455) - http://www.bohemiancoding.com/sketch -->
    <title>ocean-hex</title>
    <desc>Created with Sketch.</desc>
    <defs></defs>
    <g id="Page-1" stroke="none" stroke-width="1" fill="none" fill-rule="evenodd">
        <g id="ocean-hex">
            <polygon id="Shape" fill="#326C95" fill-rule="nonzero" points="30 0 10 0 0 18 10 36 30 36 40 18"></polygon>
            <rect id="Rectangle" fill="#0098B2" x="6" y="9" width="6" height="1"></rect>
            <rect id="Rectangle" fill="#0098B2" x="15" y="9" width="3" height="1"></rect>
            <rect id="Rectangle" fill="#0098B2" x="19" y="9" width="1" height="1"></rect>
            <rect id="Rectangle" fill="#0098B2" x="17" y="12" width="1" height="1"></rect>
            <rect id="Rectangle" fill="#0098B2" x="11" y="6" width="1" height="1"></rect>
            <rect id="Rectangle" fill="#0098B2" x="7" y="15" width="1" height="1"></rect>
            <rect id="Rectangle" fill="#0098B2" x="21" y="27" width="1" height="1"></rect>
            <rect id="Rectangle" fill="#0098B2" x="11" y="22" width="1" height="1"></rect>
            <rect id="Rectangle" fill="#0098B2" x="24" y="17" width="1" height="1"></rect>
            <rect id="Rectangle" fill="#0098B2" x="31" y="26" width="1" height="1"></rect>
            <rect id="Rectangle" fill="#0098B2" x="26" y="22" width="1" height="1"></rect>
            <rect id="Rectangle" fill="#0098B2" x="30" y="17" width="1" height="1"></rect>
            <rect id="Rectangle" fill="#0098B2" x="29" y="9" width="1" height="1"></rect>
            <rect id="Rectangle" fill="#0098B2" x="24" y="32" width="1" height="1"></rect>
            <rect id="Rectangle" fill="#0098B2" x="14" y="30" width="1" height="1"></rect>
            <rect id="Rectangle" fill="#0098B2" x="14" y="26" width="6" height="1"></rect>
            <rect id="Rectangle" fill="#0098B2" x="14" y="16" width="6" height="1"></rect>
            <rect id="Rectangle" fill="#0098B2" x="6" y="25" width="6" height="1"></rect>
            <rect id="Rectangle" fill="#0098B2" x="10" y="30" width="3" height="1"></rect>
            <rect id="Rectangle" fill="#0098B2" x="26" y="33" width="3" height="1"></rect>
            <rect id="Rectangle" fill="#0098B2" x="17" y="32" width="6" height="1"></rect>
            <rect id="Rectangle" fill="#0098B2" x="11" y="33" width="2" height="1"></rect>
            <rect id="Rectangle" fill="#0098B2" x="24" y="26" width="6" height="1"></rect>
            <rect id="Rectangle" fill="#0098B2" x="28" y="22" width="6" height="1"></rect>
            <rect id="Rectangle" fill="#0098B2" x="32" y="18" width="5" height="1"></rect>
            <rect id="Rectangle" fill="#0098B2" x="26" y="17" width="3" height="1"></rect>
            <rect id="Rectangle" fill="#0098B2" x="26" y="29" width="6" height="1"></rect>
            <rect id="Rectangle" fill="#0098B2" x="21" y="2" width="5" height="1"></rect>
            <rect id="Rectangle" fill="#0098B2" x="29" y="6" width="3" height="1"></rect>
            <rect id="Rectangle" fill="#0098B2" x="22" y="5" width="3" height="1"></rect>
            <rect id="Rectangle" fill="#0098B2" x="8" y="6" width="2" height="1"></rect>
            <rect id="Rectangle" fill="#0098B2" x="18" y="6" width="2" height="1"></rect>
            <rect id="Rectangle" fill="#0098B2" x="28" y="3" width="2" height="1"></rect>
            <rect id="Rectangle" fill="#0098B2" x="11" y="1" width="5" height="1"></rect>
            <rect id="Rectangle" fill="#0098B2" x="13" y="4" width="3" height="1"></rect>
            <rect id="Rectangle" fill="#0098B2" x="21" y="13" width="6" height="1"></rect>
            <rect id="Rectangle" fill="#0098B2" x="10" y="13" width="2" height="1"></rect>
            <rect id="Rectangle" fill="#0098B2" x="14" y="12" width="2" height="1"></rect>
            <rect id="Rectangle" fill="#0098B2" x="4" y="20" width="5" height="1"></rect>
            <rect id="Rectangle" fill="#0098B2" x="13" y="22" width="5" height="1"></rect>
            <rect id="Rectangle" fill="#0098B2" x="22" y="20" width="3" height="1"></rect>
            <rect id="Rectangle" fill="#0098B2" x="16" y="19" width="2" height="1"></rect>
            <rect id="Rectangle" fill="#0098B2" x="30" y="13" width="4" height="1"></rect>
            <rect id="Rectangle" fill="#0098B2" x="23" y="8" width="4" height="1"></rect>
            <rect id="Rectangle" fill="#0098B2" x="32" y="9" width="2" height="1"></rect>
            <rect id="Rectangle" fill="#0098B2" x="3" y="15" width="3" height="1"></rect>
            <rect id="Rectangle" fill="#0098B2" x="9" y="16" width="3" height="1"></rect>
        </g>
    </g>
</svg>