<?xml version="1.0" encoding="UTF-8"?>
<svg width="26px" height="31px" viewBox="0 0 26 31" version="1.1" xmlns="http://www.w3.org/2000/svg" xmlns:xlink="http://www.w3.org/1999/xlink">
    <!-- Generator: Sketch 44.1 (41455) - http://www.bohemiancoding.com/sketch -->
    <title>hex-template</title>
    <desc>Created with Sketch.</desc>
    <defs>
        <rect id="path-1" x="7" y="14" width="2" height="5"></rect>
        <rect id="path-2" x="12" y="19" width="3" height="3"></rect>
    </defs>
    <g id="Symbols" stroke="none" stroke-width="1" fill="none" fill-rule="evenodd">
        <g id="village" transform="translate(-7.000000, -2.000000)">
            <g id="hex-template" transform="translate(7.000000, 2.000000)">
                <rect id="Rectangle-21" fill-opacity="0.9" fill="#397439" x="6" y="12" width="7" height="1"></rect>
                <rect id="Rectangle-21" fill-opacity="0.9" fill="#397439" x="12" y="12" width="1" height="7"></rect>
                <rect id="Rectangle-21" fill-opacity="0.9" fill="#397439" x="14" y="23" width="9" height="1"></rect>
                <rect id="Rectangle-21" fill-opacity="0.9" fill="#397439" x="11" y="22" width="2" height="5"></rect>
                <rect id="Rectangle-21" fill-opacity="0.9" fill="#397439" x="13" y="24" width="2" height="5"></rect>
                <rect id="Rectangle-21" fill-opacity="0.9" fill="#397439" x="18" y="22" width="2" height="1"></rect>
                <rect id="Rectangle-21" fill-opacity="0.9" fill="#397439" x="18" y="15" width="2" height="1"></rect>
                <rect id="Rectangle-21" fill-opacity="0.9" fill="#397439" x="20" y="15" width="2" height="1"></rect>
                <rect id="Rectangle-21" fill-opacity="0.9" fill="#397439" x="19" y="14" width="2" height="1"></rect>
                <rect id="Rectangle-21" fill-opacity="0.9" fill="#397439" x="13" y="16" width="2" height="1"></rect>
                <rect id="Rectangle-21" fill-opacity="0.9" fill="#397439" x="11" y="17" width="2" height="1"></rect>
                <rect id="Rectangle-21" fill-opacity="0.9" fill="#397439" x="8" y="13" width="2" height="1"></rect>
                <rect id="Rectangle-21" fill-opacity="0.9" fill="#397439" x="10" y="13" width="2" height="1"></rect>
                <rect id="Rectangle-21" fill-opacity="0.9" fill="#397439" x="21" y="14" width="2" height="1"></rect>
                <rect id="Rectangle-21" fill-opacity="0.9" fill="#627439" x="11" y="21" width="2" height="1"></rect>
                <rect id="Rectangle-21" fill-opacity="0.9" fill="#627439" x="13" y="15" width="2" height="1"></rect>
                <rect id="Rectangle-21" fill-opacity="0.9" fill="#627439" x="6" y="13" width="1" height="1"></rect>
                <rect id="Rectangle-21" fill-opacity="0.9" fill="#627439" x="6" y="14" width="1" height="1"></rect>
                <rect id="Rectangle-21" fill-opacity="0.9" fill="#627439" x="5" y="11" width="1" height="1"></rect>
                <rect id="Rectangle-21" fill-opacity="0.9" fill="#627439" x="10" y="11" width="2" height="1"></rect>
                <rect id="Rectangle-21" fill-opacity="0.9" fill="#627439" x="15" y="24" width="1" height="1"></rect>
                <rect id="Rectangle-21" fill-opacity="0.9" fill="#397439" x="13" y="14" width="5" height="1"></rect>
                <rect id="Rectangle-20" fill="#492B10" x="16" y="20" width="7" height="2"></rect>
                <rect id="Rectangle-17" fill="#492B10" x="13" y="12" width="7" height="2"></rect>
                <rect id="Rectangle-16" fill="#492B10" x="6" y="10" width="4" height="2"></rect>
                <g id="Rectangle-18">
                    <use fill="#D8D8D8" fill-rule="evenodd" xlink:href="#path-1"></use>
                    <rect stroke="#979797" stroke-width="1" x="7.5" y="14.5" width="1" height="4"></rect>
                </g>
                <rect id="Rectangle-11" fill="#8B572A" x="4" y="22" width="1" height="1"></rect>
                <rect id="Rectangle-12" fill="#8B572A" x="8" y="22" width="1" height="1"></rect>
                <rect id="Rectangle-9" fill="#8B572A" x="15" y="28" width="1" height="1"></rect>
                <rect id="Rectangle-8" fill="#8B572A" x="10" y="28" width="1" height="1"></rect>
                <rect id="Rectangle-6" fill="#533419" x="14" y="28" width="1" height="1"></rect>
                <rect id="Rectangle" fill="#8B572A" x="5" y="0" width="1" height="4"></rect>
                <rect id="Rectangle" fill="#533419" x="4" y="1" width="1" height="4"></rect>
                <rect id="Rectangle" fill="#8B572A" x="3" y="2" width="1" height="4"></rect>
                <rect id="Rectangle" fill="#533419" x="2" y="3" width="1" height="4"></rect>
                <rect id="Rectangle" fill="#8B572A" x="1" y="4" width="1" height="4"></rect>
                <rect id="Rectangle" fill="#8B572A" x="1" y="24" width="1" height="4"></rect>
                <rect id="Rectangle" fill="#533419" x="2" y="25" width="1" height="4"></rect>
                <rect id="Rectangle" fill="#8B572A" x="3" y="26" width="1" height="4"></rect>
                <rect id="Rectangle" fill="#533419" x="4" y="27" width="1" height="4"></rect>
                <rect id="Rectangle" fill="#8B572A" x="0" y="6" width="1" height="20"></rect>
                <rect id="Rectangle" fill="#533419" x="0" y="6" width="1" height="20"></rect>
                <rect id="Rectangle" fill="#8B572A" x="21" y="1" width="1" height="4"></rect>
                <rect id="Rectangle" fill="#533419" x="22" y="2" width="1" height="4"></rect>
                <rect id="Rectangle" fill="#8B572A" x="23" y="3" width="1" height="4"></rect>
                <rect id="Rectangle" fill="#533419" x="24" y="4" width="1" height="4"></rect>
                <rect id="Rectangle" fill="#533419" x="24" y="24" width="1" height="4"></rect>
                <rect id="Rectangle" fill="#8B572A" x="23" y="25" width="1" height="4"></rect>
                <rect id="Rectangle" fill="#533419" x="22" y="26" width="1" height="4"></rect>
                <rect id="Rectangle" fill="#8B572A" x="21" y="27" width="1" height="4"></rect>
                <rect id="Rectangle" fill="#533419" x="25" y="6" width="1" height="20"></rect>
                <rect id="Rectangle" fill="#533419" x="6" y="0" width="1" height="4"></rect>
                <rect id="Rectangle" fill="#8B572A" x="7" y="0" width="1" height="4"></rect>
                <rect id="Rectangle" fill="#533419" x="8" y="0" width="1" height="4"></rect>
                <rect id="Rectangle" fill="#8B572A" x="9" y="0" width="1" height="4"></rect>
                <rect id="Rectangle" fill="#533419" x="10" y="0" width="1" height="4"></rect>
                <rect id="Rectangle" fill="#8B572A" x="11" y="0" width="1" height="4"></rect>
                <rect id="Rectangle" fill="#533419" x="12" y="0" width="1" height="4"></rect>
                <rect id="Rectangle" fill="#8B572A" x="13" y="0" width="1" height="4"></rect>
                <rect id="Rectangle" fill="#533419" x="14" y="0" width="1" height="4"></rect>
                <rect id="Rectangle" fill="#8B572A" x="15" y="0" width="1" height="4"></rect>
                <rect id="Rectangle" fill="#533419" x="16" y="0" width="1" height="4"></rect>
                <rect id="Rectangle" fill="#8B572A" x="17" y="0" width="1" height="4"></rect>
                <rect id="Rectangle" fill="#533419" x="18" y="0" width="1" height="4"></rect>
                <rect id="Rectangle" fill="#8B572A" x="19" y="0" width="1" height="4"></rect>
                <rect id="Rectangle" fill="#533419" x="20" y="0" width="1" height="4"></rect>
                <rect id="Rectangle" fill="#8B572A" x="5" y="24" width="1" height="7"></rect>
                <rect id="Rectangle" fill="#533419" x="6" y="24" width="1" height="7"></rect>
                <rect id="Rectangle" fill="#8B572A" x="7" y="24" width="1" height="7"></rect>
                <rect id="Rectangle" fill="#533419" x="8" y="27" width="1" height="4"></rect>
                <rect id="Rectangle" fill="#8B572A" x="9" y="27" width="1" height="4"></rect>
                <rect id="Rectangle" fill="#533419" x="16" y="27" width="1" height="4"></rect>
                <rect id="Rectangle" fill="#8B572A" x="17" y="27" width="1" height="4"></rect>
                <rect id="Rectangle" fill="#533419" x="18" y="27" width="1" height="4"></rect>
                <rect id="Rectangle" fill="#8B572A" x="19" y="27" width="1" height="4"></rect>
                <rect id="Rectangle" fill="#533419" x="20" y="27" width="1" height="4"></rect>
                <rect id="Rectangle-7" fill="#8B572A" x="10" y="27" width="6" height="1"></rect>
                <rect id="Rectangle-2" fill="#533419" x="11" y="28" width="1" height="1"></rect>
                <rect id="Rectangle-3" fill="#533419" x="12" y="27" width="2" height="1"></rect>
                <rect id="Rectangle-4" fill="#533419" x="10" y="29" width="1" height="2"></rect>
                <rect id="Rectangle-5" fill="#533419" x="15" y="29" width="1" height="2"></rect>
                <rect id="Rectangle-10" fill="#533419" x="4" y="23" width="5" height="1"></rect>
                <rect id="Rectangle-13" fill="#533419" x="5" y="22" width="1" height="1"></rect>
                <rect id="Rectangle-13" fill="#533419" x="7" y="22" width="1" height="1"></rect>
                <rect id="Rectangle-14" fill="#8B572A" x="6" y="6" width="4" height="4"></rect>
                <rect id="Rectangle-14" fill="#8B572A" x="13" y="8" width="7" height="4"></rect>
                <rect id="Rectangle-24" fill="#533419" x="13" y="10" width="7" height="1"></rect>
                <rect id="Rectangle-24" fill="#492B10" x="13" y="8" width="7" height="1"></rect>
                <rect id="Rectangle-24" fill="#492B10" x="6" y="8" width="4" height="1"></rect>
                <rect id="Rectangle-24" fill="#533419" x="6" y="6" width="4" height="1"></rect>
                <rect id="Rectangle-14" fill="#D8D8D8" x="16" y="16" width="7" height="4"></rect>
                <rect id="Rectangle-14" fill="#8B572A" x="16" y="16" width="7" height="4"></rect>
                <rect id="Rectangle-25" fill="#533419" x="16" y="18" width="7" height="1"></rect>
                <rect id="Rectangle-25" fill="#492B10" x="16" y="16" width="7" height="1"></rect>
                <rect id="Rectangle-19" fill="#B19802" x="7" y="14" width="3" height="6"></rect>
                <rect id="Rectangle-15" fill-opacity="0.5" fill="#C3A90D" x="7" y="15" width="1" height="1"></rect>
                <rect id="Rectangle-19-Copy" fill="#B19802" x="2" y="14" width="3" height="5"></rect>
                <rect id="Rectangle-19-Copy" fill="#968101" x="5" y="13" width="1" height="6"></rect>
                <rect id="Rectangle-19-Copy" fill="#968101" x="6" y="17" width="1" height="4"></rect>
                <rect id="Rectangle-19-Copy" fill="#968101" x="10" y="16" width="1" height="4"></rect>
                <rect id="Rectangle-15" fill-opacity="0.2" fill="#C3A90D" x="2" y="18" width="1" height="1"></rect>
                <rect id="Rectangle-15" fill-opacity="0.6" fill="#C3A90D" x="4" y="15" width="1" height="1"></rect>
                <rect id="Rectangle-15" fill-opacity="0.2" fill="#C3A90D" x="3" y="16" width="1" height="1"></rect>
                <rect id="Rectangle-15" fill-opacity="0.6" fill="#C3A90D" x="4" y="18" width="1" height="1"></rect>
                <rect id="Rectangle-15" fill-opacity="0.6" fill="#C3A90D" x="8" y="14" width="1" height="1"></rect>
                <rect id="Rectangle-15" fill-opacity="0.4" fill="#C3A90D" x="8" y="18" width="1" height="1"></rect>
                <g id="Rectangle-22">
                    <use fill="#4A4A4A" fill-rule="evenodd" xlink:href="#path-2"></use>
                    <rect stroke="#979797" stroke-width="1" x="12.5" y="19.5" width="2" height="2"></rect>
                </g>
                <rect id="Rectangle-23" fill="#514949" x="17" y="13" width="2" height="1"></rect>
                <rect id="Rectangle-23" fill="#514949" x="17" y="21" width="2" height="1"></rect>
                <rect id="Rectangle-23" fill="#514949" x="7" y="11" width="2" height="1"></rect>
            </g>
        </g>
    </g>
</svg>